<svg width="1024" height="1024" version="1.1" viewBox="0 0 271 271" xmlns="http://www.w3.org/2000/svg" xmlns:xlink="http://www.w3.org/1999/xlink"><defs><linearGradient id="linearGradient2213" x1="131" x2="129" y1="188" y2="224" gradientTransform="matrix(1 0 0 1.2 0 -50.6)" gradientUnits="userSpaceOnUse"><stop stop-color="#fff" stop-opacity="0" offset="0"/><stop stop-color="#fff" offset="1"/></linearGradient><linearGradient id="linearGradient2270" x1="103" x2="107" y1="248" y2="154" gradientTransform="matrix(1 0 0 .818 -4e-4 41.7)" gradientUnits="userSpaceOnUse"><stop stop-color="#f6f2e9" offset="0"/><stop stop-color="#f6f2e9" stop-opacity="0" offset="1"/></linearGradient></defs><g transform="translate(0 -26.1)"><g><rect transform="scale(1,-1)" x=".0608" y="-229" width="271" height="128" fill="#c1cbbb" style="paint-order:normal"/><path d="m35 26.1h201c19.4 0 35 15.6 35 35v65.4h-271v-65.4c0-19.4 15.6-35 35-35z" fill="#0070c4" style="paint-order:normal"/><path d="m0.121 169s15.5-3.05 25.5-4.29c10-1.23 22.2-3.56 34.6-2.72 12.5 0.845 27.9 6.49 39.9 8.58 12 2.09 21.3 4.02 32.3 4.29 11 0.265 22.2-1.91 33.9-2.86 11.7-0.954 24.2-3.11 36.1-2.86 11.9 0.251 20.2 0.69 35.4 4.29 15.2 3.6 33.1 8.58 33.1 8.58v68.6h-271z" fill="url(#linearGradient2213)" stroke-opacity="0" style="paint-order:normal"/><path d="m0 237h271v-112h-271z" fill="#4eadb8" style="paint-order:normal"/></g><g transform="matrix(.265 0 0 .265 -10.5 -38.1)" fill="#edf7ff" style="font-feature-settings:normal;font-variant-caps:normal;font-variant-ligatures:normal;font-variant-numeric:normal" aria-label="sustaincia "><path d="m132 470 16.7-2.62q1.41 10 7.78 15.4 6.47 5.34 18 5.34 11.6 0 17.2-4.69 5.62-4.78 5.62-11.2 0-5.72-4.97-9-3.47-2.25-17.2-5.72-18.6-4.69-25.8-8.06-7.12-3.47-10.9-9.47-3.66-6.09-3.66-13.4 0-6.66 3-12.3 3.09-5.72 8.34-9.47 3.94-2.91 10.7-4.88 6.84-2.06 14.6-2.06 11.7 0 20.5 3.38 8.91 3.38 13.1 9.19 4.22 5.72 5.81 15.4l-16.5 2.25q-1.12-7.69-6.56-12-5.34-4.31-15.2-4.31-11.6 0-16.6 3.84t-4.97 9q0 3.28 2.06 5.91 2.06 2.72 6.47 4.5 2.53 0.938 14.9 4.31 17.9 4.78 24.9 7.88 7.12 3 11.2 8.81t4.03 14.4q0 8.44-4.97 15.9-4.88 7.41-14.2 11.5-9.28 4.03-21 4.03-19.4 0-29.6-8.06-10.1-8.06-12.9-23.9z" style="font-feature-settings:normal;font-variant-caps:normal;font-variant-ligatures:normal;font-variant-numeric:normal"/><path d="m300 500v-14.6q-11.6 16.9-31.6 16.9-8.81 0-16.5-3.38-7.59-3.38-11.3-8.44-3.66-5.16-5.16-12.6-1.03-4.97-1.03-15.8v-61.7h16.9v55.2q0 13.2 1.03 17.8 1.59 6.66 6.75 10.5 5.16 3.75 12.8 3.75t14.2-3.84q6.66-3.94 9.38-10.6 2.81-6.75 2.81-19.5v-53.3h16.9v99.6z" style="font-feature-settings:normal;font-variant-caps:normal;font-variant-ligatures:normal;font-variant-numeric:normal"/><path d="m334 470 16.7-2.62q1.41 10 7.78 15.4 6.47 5.34 18 5.34 11.6 0 17.2-4.69 5.62-4.78 5.62-11.2 0-5.72-4.97-9-3.47-2.25-17.2-5.72-18.6-4.69-25.8-8.06-7.12-3.47-10.9-9.47-3.66-6.09-3.66-13.4 0-6.66 3-12.3 3.09-5.72 8.34-9.47 3.94-2.91 10.7-4.88 6.84-2.06 14.6-2.06 11.7 0 20.5 3.38 8.91 3.38 13.1 9.19 4.22 5.72 5.81 15.4l-16.5 2.25q-1.12-7.69-6.56-12-5.34-4.31-15.2-4.31-11.6 0-16.6 3.84t-4.97 9q0 3.28 2.06 5.91 2.06 2.72 6.47 4.5 2.53 0.938 14.9 4.31 17.9 4.78 24.9 7.88 7.12 3 11.2 8.81t4.03 14.4q0 8.44-4.97 15.9-4.88 7.41-14.2 11.5-9.28 4.03-21 4.03-19.4 0-29.6-8.06-10.1-8.06-12.9-23.9z" style="font-feature-settings:normal;font-variant-caps:normal;font-variant-ligatures:normal;font-variant-numeric:normal"/><path d="m474 485 2.44 14.9q-7.12 1.5-12.8 1.5-9.19 0-14.2-2.91t-7.12-7.59q-2.06-4.78-2.06-20v-57.3h-12.4v-13.1h12.4v-24.7l16.8-10.1v34.8h17v13.1h-17v58.2q0 7.22 0.844 9.28 0.938 2.06 2.91 3.28 2.06 1.22 5.81 1.22 2.81 0 7.41-0.656z" style="font-feature-settings:normal;font-variant-caps:normal;font-variant-ligatures:normal;font-variant-numeric:normal"/><path d="m555 488q-9.38 7.97-18.1 11.2-8.62 3.28-18.6 3.28-16.4 0-25.2-7.97-8.81-8.06-8.81-20.5 0-7.31 3.28-13.3 3.38-6.09 8.72-9.75 5.44-3.66 12.2-5.53 4.97-1.31 15-2.53 20.4-2.44 30.1-5.81 0.0937-3.47 0.0937-4.41 0-10.3-4.78-14.5-6.47-5.72-19.2-5.72-11.9 0-17.6 4.22-5.62 4.12-8.34 14.7l-16.5-2.25q2.25-10.6 7.41-17.1 5.16-6.56 14.9-10 9.75-3.56 22.6-3.56 12.8 0 20.7 3t11.7 7.59q3.75 4.5 5.25 11.4 0.844 4.31 0.844 15.6v22.5q0 23.5 1.03 29.8 1.12 6.19 4.31 11.9h-17.6q-2.62-5.25-3.38-12.3zm-1.41-37.7q-9.19 3.75-27.6 6.38-10.4 1.5-14.7 3.38t-6.66 5.53q-2.34 3.56-2.34 7.97 0 6.75 5.06 11.2 5.16 4.5 15 4.5 9.75 0 17.3-4.22 7.59-4.31 11.2-11.7 2.72-5.72 2.72-16.9z" style="font-feature-settings:normal;font-variant-caps:normal;font-variant-ligatures:normal;font-variant-numeric:normal"/><path d="m597 382v-19.4h16.9v19.4zm0 118v-99.6h16.9v99.6z" style="font-feature-settings:normal;font-variant-caps:normal;font-variant-ligatures:normal;font-variant-numeric:normal"/><path d="m640 500v-99.6h15.2v14.2q11-16.4 31.7-16.4 9 0 16.5 3.28 7.59 3.19 11.3 8.44t5.25 12.5q0.938 4.69 0.938 16.4v61.2h-16.9v-60.6q0-10.3-1.97-15.4-1.97-5.16-7.03-8.16-4.97-3.09-11.7-3.09-10.8 0-18.7 6.84-7.78 6.84-7.78 26v54.4z" style="font-feature-settings:normal;font-variant-caps:normal;font-variant-ligatures:normal;font-variant-numeric:normal"/><path d="m812 463 16.6 2.16q-2.72 17.2-14 26.9-11.2 9.66-27.5 9.66-20.4 0-32.9-13.3-12.4-13.4-12.4-38.3 0-16.1 5.34-28.2t16.2-18.1q11-6.09 23.8-6.09 16.2 0 26.5 8.25 10.3 8.16 13.2 23.2l-16.4 2.53q-2.34-10-8.34-15.1-5.91-5.06-14.3-5.06-12.8 0-20.7 9.19-7.97 9.09-7.97 28.9 0 20.1 7.69 29.2t20.1 9.09q9.94 0 16.6-6.09t8.44-18.8z" style="font-feature-settings:normal;font-variant-caps:normal;font-variant-ligatures:normal;font-variant-numeric:normal"/><path d="m843 382v-19.4h16.9v19.4zm0 118v-99.6h16.9v99.6z" style="font-feature-settings:normal;font-variant-caps:normal;font-variant-ligatures:normal;font-variant-numeric:normal"/><path d="m951 488q-9.38 7.97-18.1 11.2-8.62 3.28-18.6 3.28-16.4 0-25.2-7.97-8.81-8.06-8.81-20.5 0-7.31 3.28-13.3 3.38-6.09 8.72-9.75 5.44-3.66 12.2-5.53 4.97-1.31 15-2.53 20.4-2.44 30.1-5.81 0.0937-3.47 0.0937-4.41 0-10.3-4.78-14.5-6.47-5.72-19.2-5.72-11.9 0-17.6 4.22-5.62 4.12-8.34 14.7l-16.5-2.25q2.25-10.6 7.41-17.1 5.16-6.56 14.9-10 9.75-3.56 22.6-3.56 12.8 0 20.7 3t11.7 7.59q3.75 4.5 5.25 11.4 0.844 4.31 0.844 15.6v22.5q0 23.5 1.03 29.8 1.12 6.19 4.31 11.9h-17.6q-2.62-5.25-3.38-12.3zm-1.41-37.7q-9.19 3.75-27.6 6.38-10.4 1.5-14.7 3.38t-6.66 5.53q-2.34 3.56-2.34 7.97 0 6.75 5.06 11.2 5.16 4.5 15 4.5 9.75 0 17.3-4.22 7.59-4.31 11.2-11.7 2.72-5.72 2.72-16.9z" style="font-feature-settings:normal;font-variant-caps:normal;font-variant-ligatures:normal;font-variant-numeric:normal"/></g><g><path d="m0 189s15.5-1.58 25.6-2.22c10-0.64 22.2-1.85 34.6-1.41 12.5 0.438 27.9 3.36 39.9 4.45 12.1 1.08 21.3 2.09 32.4 2.22 11.1 0.137 22.2-0.988 33.9-1.48 11.7-0.495 24.2-1.61 36.1-1.48 11.9 0.13 20.2 0.358 35.4 2.22s33.1 1.48 33.1 1.48v38.5h-271z" fill="#a4c7c9" style="paint-order:normal"/><path d="m0 205s15.5-1.32 25.6-1.85c10-0.534 22.2-1.54 34.6-1.17 12.5 0.366 27.9 2.8 39.9 3.71 12.1 0.905 21.3 2.8 32.4 2.91 11.1 0.115 22.2 0.234 33.9-0.178 11.7-0.413 24.2 3.42 36.1 3.53 11.9 0.108 20.2 0.299 35.4 1.85s33.1 1.24 33.1 1.24l4e-4 42.2h-271z" fill="url(#linearGradient2270)" style="paint-order:normal"/><path d="m0 223s15.5-1.62 25.6-2.27 22.2-1.88 34.6-1.44c12.5 0.447 27.9 3.43 39.9 4.54s21.3 2.13 32.4 2.27 22.2-1.01 33.9-1.51 24.2-1.64 36.1-1.51 20.2 0.365 35.4 2.27 33.1 1.3 33.1 1.3l0.0607 39.5h-271z" fill="#ccc5ba" style="paint-order:normal"/><path d="m0 245v22.2c2.09 15.6 14.4 27.9 30 30h211c15.6-2.09 28-14.4 30-30l-1e-5 -22.2s-53.5 4.19-76 4.19-42.1-6.8-64.7-6.8c-22.6 0-49.7 6.05-72.3 6.05s-57.9-3.41-57.9-3.41z" fill="#f6f2e9" style="paint-order:normal"/></g></g></svg>
