<svg width="1024" height="1024" version="1.1" viewBox="0 0 271 271" xmlns="http://www.w3.org/2000/svg" xmlns:xlink="http://www.w3.org/1999/xlink"><g stroke-linecap="round" stroke-linejoin="round"><rect transform="scale(1,-1)" x=".0772" y="-203" width="271" height="106" fill="#fff" stroke="#346990" stroke-width="2.68" style="paint-order:normal"/><rect transform="scale(1,-1)" x=".0472" y="-203" width="271" height="102" fill="#4eadb8" stroke="#4eadb8" stroke-width="2.62" style="paint-order:normal"/></g><g fill="#fff" stroke="#fff" stroke-linejoin="round" stroke-width="2.65"><g><path d="m2.31 116c5.57 0.105 15.3-1.58 21.1-1.62 5.82-0.0375 8.81 1.99 14.8 1.85 5.96-0.139 10.5-2.17 16.5-2.37 5.99-0.2 13.4 1.43 19.3 1.21 5.9-0.22 11.9-1.88 17.6-2.08 5.7-0.199 11.1 1.89 16.5 1.75 5.39-0.137 10.5-1.4 15.4-1.44 0 0-10.3-1.01-15.4-1.15-8.52-0.23-13.4 0.138-25.6 0.511-5.85 0.159-9.82-1.14-15.5-0.903-5.64 0.238-12.9 1.6-18.3 1.82-5.41 0.224-13.2-1.47-18.4-1.35-5.16 0.117-8.93 0.966-13.8 0.885-4.91-0.0816-9.45 0.38-14.1 8e-3z"/><path d="m156 115c9.12 0.311 15.4-1.62 24.5-1.51 9.1 0.1 18.8 1.41 28.1 1.35 9.38-0.06 15.5-1.49 25.4-1.66 9.97-0.17 24.3 0.919 35.2 0.69l-0.129-2.04c-7.92-0.572-12.9-0.455-22.1 0.126-4.56 0.29-12.6-0.0645-17.7 0.57-5.04 0.635-10.5-0.475-15.5-0.46-4.94 0.0154-16.6 1.5-21.4 1.08-4.78-0.422-12.8-0.7-17.8-0.296-8.97 0.716-13.1 1.89-18.8 2.16z"/><path d="m50.2 134c28.3 0.645 19.1 5.65 36.4 6.17 8.66 0.256 28.4-3.16 37-2.93 8.57 0.229 19.9-0.698 28.3-0.552 8.4 0.146 17-3.28 25.1-3.27 8.14 9e-3 15.9 3.75 23.7 4.86 16.5 2.38 31.9-2.81 45.6-4.27-20.6-2.07-23.5-2.45-33.2-2.58-6.28-0.102-28.9 3.59-41 0.762-12.9-3-27-1.62-36.8 0.587-18.4 4.14-28.1 4.22-41.3 2.68-16.4-1.9-23.7-4.22-43.8-1.45z"/><path d="m2.33 165s3.22 1.2 7.28 1.4c4.06 0.197 8.99-1.36 12.7-1.29 3.72 0.0658 13.8 4.11 17.5 4.08 7.8 1.16 13.8-3.87 20.8-4.42 3.59-0.165 5.67 1.96 9.11 2.78 8.1 1.94 8.97-1.94 21.5-4.84-11.4-3.34-17.4-1.6-26.6 0.369-7.91 1.68-15.4-2.68-23.4-3.21s-12 4.33-19 4.7c-7.05 0.365-14.8-7.32-19.8-5.92z"/></g><path d="m120 165c5.72 2.33 8.04 5.02 15.2 5.65 7.16 0.631 11.5-7.72 17.6-7.37 6.13 0.351 9.81 4.3 16.3 4.44s11.8-3.08 17.9-2.98c6.14 0.0952 24.6 4.84 29.3 4.94 4.71 0.0961 19.1-4.98 25.3-5.65 12.1 0.967 21.1 5.97 27.8 5.77l2e-5 -5.75c-6.99-2.75-16-1.11-24.8-0.65-8.82 0.461-23-5.54-32.4-3.77-9.36 1.77-13.9 3.37-22.5 4.55s-15-5.18-21.6-6.5c-5.65-1.13-12.1 3.54-16.9 3.73-4.8 0.188-13.9 2.81-16.7 2.61s-8.12 0.0997-14.5 0.989z" stroke-linecap="round"/></g><g><path transform="translate(0 -26.1)" d="m0 212s17.5 0.712 27.5 0.205c10-0.507 25.6-5.95 38.1-5.6 12.5 0.347 27.4 11.6 39.4 12.5 12.1 0.859 22-5.74 33-5.63 11.1 0.109 19.4 5.86 31 5.47 11.7-0.392 20-8.03 31.9-7.93 11.9 0.103 20.2 8.21 35.4 9.69s34.5-5.6 34.5-5.6l4e-4 37.5h-271z" fill="#fff" stroke="#fff" stroke-linecap="round" stroke-linejoin="round" stroke-width="2.65" style="paint-order:normal"/></g><g><path transform="translate(0 -26.1)" d="m0 218s4.38 2.87 9.51 2.38c5.13-0.485 11-4.32 16-4.65s12 4.19 17.9 3.85c5.84-0.333 10.5-5.51 16.7-5.29 6.23 0.223 12.7 5.57 19.6 6.5 6.91 0.94 14.3-2.52 20.3-1.97 6.03 0.553 12.3 5.57 17.5 5.98 5.2 0.411 9.28-3.78 14.8-3.71 5.53 0.0701 11 2.36 16.6 2.03s11.5-3.29 17.3-3.54c5.83-0.252 15.4 1.17 21.5 0.842s8.71-2.42 14.7-2.35c5.97 0.0662 13.5 6.14 19 6.45s8.82-5.13 16.4-4.18c7.6 0.951 15.9 6.26 22.2 6.35 6.36 0.0873 10.8-5.05 10.8-5.05l0.0607 39.5h-271z" fill="#ccc5ba" stroke="#ccc5ba" stroke-linecap="round" stroke-linejoin="round" stroke-width="2.65" style="paint-order:normal"/></g><g><path transform="translate(0 -26.1)" d="m1.32e-8 245v22.2c2.09 15.6 14.4 27.9 30 30h211c15.6-2.09 28-14.4 30-30v-22.2s-31.7-0.486-61.2 3.66-56.9-6.27-79.5-6.27c-22.6 0-44.4 11.9-72.3 6.05s-57.9-3.41-57.9-3.41z" fill="#f6f2e9" stroke="#f6f2e9" stroke-dasharray="5.29166667, 2.64583333" stroke-linecap="square" stroke-linejoin="round" stroke-width="2.65" style="paint-order:normal"/></g><g transform="translate(0 -26.1)"><path d="m35 26.1h201c19.4 0 35 15.6 35 35v65.4h-271v-65.4c0-19.4 15.6-35 35-35z" fill="#0070c4" stroke="#0070c4" stroke-linecap="square" stroke-linejoin="round" stroke-width="2.65" style="paint-order:normal"/><g transform="matrix(.265 0 0 .265 -10.5 -38.1)" fill="#fff" style="font-feature-settings:normal;font-variant-caps:normal;font-variant-ligatures:normal;font-variant-numeric:normal" aria-label="sustaincia "><path d="m132 470 16.7-2.62q1.41 10 7.78 15.4 6.47 5.34 18 5.34 11.6 0 17.2-4.69 5.62-4.78 5.62-11.2 0-5.72-4.97-9-3.47-2.25-17.2-5.72-18.6-4.69-25.8-8.06-7.12-3.47-10.9-9.47-3.66-6.09-3.66-13.4 0-6.66 3-12.3 3.09-5.72 8.34-9.47 3.94-2.91 10.7-4.88 6.84-2.06 14.6-2.06 11.7 0 20.5 3.38 8.91 3.38 13.1 9.19 4.22 5.72 5.81 15.4l-16.5 2.25q-1.12-7.69-6.56-12-5.34-4.31-15.2-4.31-11.6 0-16.6 3.84t-4.97 9q0 3.28 2.06 5.91 2.06 2.72 6.47 4.5 2.53 0.938 14.9 4.31 17.9 4.78 24.9 7.88 7.12 3 11.2 8.81t4.03 14.4q0 8.44-4.97 15.9-4.88 7.41-14.2 11.5-9.28 4.03-21 4.03-19.4 0-29.6-8.06-10.1-8.06-12.9-23.9z" style="font-feature-settings:normal;font-variant-caps:normal;font-variant-ligatures:normal;font-variant-numeric:normal"/><path d="m300 500v-14.6q-11.6 16.9-31.6 16.9-8.81 0-16.5-3.38-7.59-3.38-11.3-8.44-3.66-5.16-5.16-12.6-1.03-4.97-1.03-15.8v-61.7h16.9v55.2q0 13.2 1.03 17.8 1.59 6.66 6.75 10.5 5.16 3.75 12.8 3.75t14.2-3.84q6.66-3.94 9.38-10.6 2.81-6.75 2.81-19.5v-53.3h16.9v99.6z" style="font-feature-settings:normal;font-variant-caps:normal;font-variant-ligatures:normal;font-variant-numeric:normal"/><path d="m334 470 16.7-2.62q1.41 10 7.78 15.4 6.47 5.34 18 5.34 11.6 0 17.2-4.69 5.62-4.78 5.62-11.2 0-5.72-4.97-9-3.47-2.25-17.2-5.72-18.6-4.69-25.8-8.06-7.12-3.47-10.9-9.47-3.66-6.09-3.66-13.4 0-6.66 3-12.3 3.09-5.72 8.34-9.47 3.94-2.91 10.7-4.88 6.84-2.06 14.6-2.06 11.7 0 20.5 3.38 8.91 3.38 13.1 9.19 4.22 5.72 5.81 15.4l-16.5 2.25q-1.12-7.69-6.56-12-5.34-4.31-15.2-4.31-11.6 0-16.6 3.84t-4.97 9q0 3.28 2.06 5.91 2.06 2.72 6.47 4.5 2.53 0.938 14.9 4.31 17.9 4.78 24.9 7.88 7.12 3 11.2 8.81t4.03 14.4q0 8.44-4.97 15.9-4.88 7.41-14.2 11.5-9.28 4.03-21 4.03-19.4 0-29.6-8.06-10.1-8.06-12.9-23.9z" style="font-feature-settings:normal;font-variant-caps:normal;font-variant-ligatures:normal;font-variant-numeric:normal"/><path d="m474 485 2.44 14.9q-7.12 1.5-12.8 1.5-9.19 0-14.2-2.91t-7.12-7.59q-2.06-4.78-2.06-20v-57.3h-12.4v-13.1h12.4v-24.7l16.8-10.1v34.8h17v13.1h-17v58.2q0 7.22 0.844 9.28 0.938 2.06 2.91 3.28 2.06 1.22 5.81 1.22 2.81 0 7.41-0.656z" style="font-feature-settings:normal;font-variant-caps:normal;font-variant-ligatures:normal;font-variant-numeric:normal"/><path d="m555 488q-9.38 7.97-18.1 11.2-8.62 3.28-18.6 3.28-16.4 0-25.2-7.97-8.81-8.06-8.81-20.5 0-7.31 3.28-13.3 3.38-6.09 8.72-9.75 5.44-3.66 12.2-5.53 4.97-1.31 15-2.53 20.4-2.44 30.1-5.81 0.0937-3.47 0.0937-4.41 0-10.3-4.78-14.5-6.47-5.72-19.2-5.72-11.9 0-17.6 4.22-5.62 4.12-8.34 14.7l-16.5-2.25q2.25-10.6 7.41-17.1 5.16-6.56 14.9-10 9.75-3.56 22.6-3.56 12.8 0 20.7 3t11.7 7.59q3.75 4.5 5.25 11.4 0.844 4.31 0.844 15.6v22.5q0 23.5 1.03 29.8 1.12 6.19 4.31 11.9h-17.6q-2.62-5.25-3.38-12.3zm-1.41-37.7q-9.19 3.75-27.6 6.38-10.4 1.5-14.7 3.38t-6.66 5.53q-2.34 3.56-2.34 7.97 0 6.75 5.06 11.2 5.16 4.5 15 4.5 9.75 0 17.3-4.22 7.59-4.31 11.2-11.7 2.72-5.72 2.72-16.9z" style="font-feature-settings:normal;font-variant-caps:normal;font-variant-ligatures:normal;font-variant-numeric:normal"/><path d="m597 382v-19.4h16.9v19.4zm0 118v-99.6h16.9v99.6z" style="font-feature-settings:normal;font-variant-caps:normal;font-variant-ligatures:normal;font-variant-numeric:normal"/><path d="m640 500v-99.6h15.2v14.2q11-16.4 31.7-16.4 9 0 16.5 3.28 7.59 3.19 11.3 8.44t5.25 12.5q0.938 4.69 0.938 16.4v61.2h-16.9v-60.6q0-10.3-1.97-15.4-1.97-5.16-7.03-8.16-4.97-3.09-11.7-3.09-10.8 0-18.7 6.84-7.78 6.84-7.78 26v54.4z" style="font-feature-settings:normal;font-variant-caps:normal;font-variant-ligatures:normal;font-variant-numeric:normal"/><path d="m812 463 16.6 2.16q-2.72 17.2-14 26.9-11.2 9.66-27.5 9.66-20.4 0-32.9-13.3-12.4-13.4-12.4-38.3 0-16.1 5.34-28.2t16.2-18.1q11-6.09 23.8-6.09 16.2 0 26.5 8.25 10.3 8.16 13.2 23.2l-16.4 2.53q-2.34-10-8.34-15.1-5.91-5.06-14.3-5.06-12.8 0-20.7 9.19-7.97 9.09-7.97 28.9 0 20.1 7.69 29.2t20.1 9.09q9.94 0 16.6-6.09t8.44-18.8z" style="font-feature-settings:normal;font-variant-caps:normal;font-variant-ligatures:normal;font-variant-numeric:normal"/><path d="m843 382v-19.4h16.9v19.4zm0 118v-99.6h16.9v99.6z" style="font-feature-settings:normal;font-variant-caps:normal;font-variant-ligatures:normal;font-variant-numeric:normal"/><path d="m951 488q-9.38 7.97-18.1 11.2-8.62 3.28-18.6 3.28-16.4 0-25.2-7.97-8.81-8.06-8.81-20.5 0-7.31 3.28-13.3 3.38-6.09 8.72-9.75 5.44-3.66 12.2-5.53 4.97-1.31 15-2.53 20.4-2.44 30.1-5.81 0.0937-3.47 0.0937-4.41 0-10.3-4.78-14.5-6.47-5.72-19.2-5.72-11.9 0-17.6 4.22-5.62 4.12-8.34 14.7l-16.5-2.25q2.25-10.6 7.41-17.1 5.16-6.56 14.9-10 9.75-3.56 22.6-3.56 12.8 0 20.7 3t11.7 7.59q3.75 4.5 5.25 11.4 0.844 4.31 0.844 15.6v22.5q0 23.5 1.03 29.8 1.12 6.19 4.31 11.9h-17.6q-2.62-5.25-3.38-12.3zm-1.41-37.7q-9.19 3.75-27.6 6.38-10.4 1.5-14.7 3.38t-6.66 5.53q-2.34 3.56-2.34 7.97 0 6.75 5.06 11.2 5.16 4.5 15 4.5 9.75 0 17.3-4.22 7.59-4.31 11.2-11.7 2.72-5.72 2.72-16.9z" style="font-feature-settings:normal;font-variant-caps:normal;font-variant-ligatures:normal;font-variant-numeric:normal"/></g></g></svg>
